
<svg xmlns="http://www.w3.org/2000/svg" version="1.1" xmlns:xlink="http://www.w3.org/1999/xlink" preserveAspectRatio="none" x="0px" y="0px" width="98px" height="84px" viewBox="0 0 98 84">
<defs>
<g id="Layer2_0_MEMBER_0_MEMBER_0_MEMBER_0_FILL">
<path fill="#C7CF43" stroke="none" d="
M 1020.55 4597.7
Q 1021.9 4589.65 1018.5 4582.95 1014.75 4575.55 1007.7 4572.2 999.2 4568.1 988.9 4571.9 978.75 4575.6 976.3 4586.3 975.05 4591.7 975.9 4596.45 976.05 4597.25 976.75 4597.75 977.4 4598.2 978.2 4598.05 979.05 4597.9 979.5 4597.2 980 4596.5 979.85 4595.7 979.15 4591.6 980.1 4587.25 982.1 4578.65 990.25 4575.65 1000.5 4571.9 1008.15 4577.05 1012.55 4580 1014.95 4584.8 1017.75 4590.35 1016.6 4597.15 1015.4 4603.9 1010.8 4608.7 1006.55 4613.15 1005.25 4617.1 1004.5 4619.45 1004.65 4622.8
L 1004.65 4623.9
Q 1004.65 4631.85 997.2 4633.75 993.2 4634.75 989.8 4631.85 987.15 4628.7 987.05 4628.55 986.65 4627.8 985.85 4627.55 985.05 4627.3 984.3 4627.7 983.6 4628.1 983.35 4628.9 983.1 4629.7 983.5 4630.45 985 4633.2 987.7 4635.3 991.25 4638 995.25 4638 996.75 4638 998.15 4637.65 1004.35 4636.1 1006.95 4631.15 1008.65 4627.95 1008.65 4623.9
L 1008.65 4622.6
Q 1008.55 4619.8 1009.15 4618.1 1010.2 4615.15 1013.7 4611.45 1019.15 4605.75 1020.55 4597.7 Z"/>
</g>

<g id="Layer2_0_MEMBER_0_MEMBER_1_MEMBER_0_FILL">
<path fill="#FFFFFC" stroke="none" d="
M 991.85 4599.7
Q 991.5 4600.15 991.3 4600.15 990.6 4600.15 989.55 4598.3 988.6 4596.6 988.5 4594.45 988.45 4592.3 989.3 4590.4 991.05 4586.55 995.75 4585.7 1001.2 4584.7 1004.65 4587.7 1007.9 4590.5 1007.75 4595.35 1007.7 4596.2 1008.25 4596.8 1008.85 4597.4 1009.65 4597.4 1010.5 4597.45 1011.1 4596.9 1011.7 4596.3 1011.75 4595.5 1011.85 4592.3 1010.7 4589.5 1009.55 4586.65 1007.25 4584.65 1004.9 4582.6 1001.75 4581.85 998.55 4581.1 995 4581.75 988.3 4583 985.65 4588.7 984.4 4591.5 984.5 4594.65 984.6 4597.8 986.05 4600.3 988.6 4604.7 991.95 4604.15 993.5 4603.9 994.7 4602.5 995.9 4601.15 996.35 4599.1 996.4 4598.65 997 4598.3 997.55 4598 998.25 4597.9 999.05 4597.8 999.75 4598.05 1000.5 4598.3 1000.75 4598.8 1001.9 4601.15 1001.55 4602.8 1001.2 4604.4 999.3 4605.7 996.4 4607.65 995.7 4610.55 995.2 4612.75 995.95 4614.55 996.95 4617.4 994.85 4618.2 994.2 4618.5 993.55 4618.2 992.2 4617.6 991.25 4615.3 990.95 4614.55 990.2 4614.2 989.45 4613.85 988.65 4614.15 987.9 4614.45 987.55 4615.2 987.2 4615.95 987.5 4616.75 987.9 4617.85 988.7 4619 990.1 4621.1 991.95 4621.9 993 4622.35 994.15 4622.35 995.2 4622.35 996.3 4621.95 998.8 4620.95 999.7 4618.8 1000.45 4617.15 1000.15 4615.1 1000 4613.9 999.65 4613.05 999.4 4612.45 999.55 4611.7 999.8 4610.15 1001.55 4609 1008.05 4604.6 1004.35 4597.05 1003.55 4595.35 1001.75 4594.55 999.95 4593.7 997.75 4593.95 995.7 4594.2 994.25 4595.4 992.8 4596.55 992.4 4598.25 992.25 4599.1 991.85 4599.7 Z"/>
</g>

<g id="Mask_1_MASK_0_MEMBER_0_MEMBER_0_FILL">
<path fill="#FFFFFF" stroke="none" d="
M 1853.1 4573.5
Q 1858.5 4577 1861.5 4583 1864.9 4589.65 1863.55 4597.7 1862.15 4605.75 1856.7 4611.45 1853.2 4615.15 1852.15 4618.1 1851.55 4619.8 1851.65 4622.6
L 1851.65 4623.9
Q 1851.65 4627.95 1849.95 4631.15 1847.35 4636.1 1841.15 4637.65
L 1839 4637.95 1839 4638 1953 4638 1953 4570 1839 4570 1839 4570.2
Q 1846.8 4569.45 1853.1 4573.5 Z"/>
</g>

<path id="Tween_14_0_Layer0_0_MEMBER_0_1_STROKES" stroke="#FFFFFC" stroke-width="2" stroke-linejoin="miter" stroke-linecap="butt" stroke-miterlimit="10" fill="none" d="
M 1049.7 4581.5
Q 1055.05 4591.3 1055.05 4602.5 1055.05 4613.7 1049.7 4623.5"/>

<path id="Tween_14_0_Layer0_0_MEMBER_1_1_STROKES" stroke="#C7CF43" stroke-width="2" stroke-linejoin="miter" stroke-linecap="butt" stroke-miterlimit="10" fill="none" d="
M 1039 4586.7
Q 1043.45 4594.8 1043.45 4602.5 1043.45 4610.2 1039 4618.25"/>

<path id="Tween_14_0_Layer0_0_MEMBER_2_1_STROKES" stroke="#FFFFFC" stroke-width="2" stroke-linejoin="miter" stroke-linecap="butt" stroke-miterlimit="10" fill="none" d="
M 1028.65 4591.3
Q 1031.5 4596.5 1031.5 4602.5 1031.5 4608.5 1028.65 4613.7"/>
</defs>

<g transform="matrix( 1, 0, 0, 1, -970.6,-4561.65) ">
<use xlink:href="#Layer2_0_MEMBER_0_MEMBER_0_MEMBER_0_FILL"/>
</g>

<g transform="matrix( 1, 0, 0, 1, -970.6,-4561.65) ">
<use xlink:href="#Layer2_0_MEMBER_0_MEMBER_1_MEMBER_0_FILL"/>
</g>

<mask id="Mask_Mask_1">
<g transform="matrix( 1, 0, 0, 1, -1813.75,-4561.65) ">
<use xlink:href="#Mask_1_MASK_0_MEMBER_0_MEMBER_0_FILL"/>
</g>
</mask>

<g mask="url(#Mask_Mask_1)">
<g transform="matrix( 0.242431640625, 0, 0, 0.242431640625, 34.5,40) ">
<g transform="matrix( 1, 0, 0, 1, -1041.85,-4602.5) ">
<use xlink:href="#Tween_14_0_Layer0_0_MEMBER_0_1_STROKES"/>
</g>

<g transform="matrix( 1, 0, 0, 1, -1041.85,-4602.5) ">
<use xlink:href="#Tween_14_0_Layer0_0_MEMBER_1_1_STROKES"/>
</g>

<g transform="matrix( 1, 0, 0, 1, -1041.85,-4602.5) ">
<use xlink:href="#Tween_14_0_Layer0_0_MEMBER_2_1_STROKES"/>
</g>
</g>
</g>
</svg>
