
<svg xmlns="http://www.w3.org/2000/svg" version="1.1" xmlns:xlink="http://www.w3.org/1999/xlink" preserveAspectRatio="none" x="0px" y="0px" width="130px" height="130px" viewBox="0 0 130 130">
<defs>
<path id="Tween_5_0_Layer0_0_1_STROKES" stroke="#C7CF43" stroke-width="2" stroke-linejoin="miter" stroke-linecap="butt" stroke-miterlimit="10" fill="none" d="
M 1049.7 4212.5
L 1040.25 4221.9
Q 1039.75 4222.4 1039.1 4222.4 1038.4 4222.4 1037.9 4221.9
L 1030.85 4214.8
Q 1030.35 4214.3 1030.35 4213.65 1030.35 4213 1030.85 4212.5
L 1040.25 4203.05
Q 1035.75 4200.65 1031.45 4201.3 1027.25 4201.95 1023.8 4205.4
L 1020.25 4208.95
Q 1015.3 4213.9 1019.15 4224.35
L 966.15 4277.35
Q 964.7 4278.8 964.7 4280.9 964.7 4282.95 966.15 4284.4
L 968.5 4286.75
Q 969.95 4288.2 972.05 4288.2 974.1 4288.2 975.55 4286.75
L 1028.55 4233.75
Q 1038.7 4237.6 1043.8 4232.5
L 1047.35 4228.95
Q 1050.8 4225.5 1051.45 4221.35 1052.15 4217 1049.7 4212.5 Z"/>

<path id="Tween_5_0_Layer0_1_1_STROKES" stroke="#FFFFFC" stroke-width="2" stroke-linejoin="miter" stroke-linecap="butt" stroke-miterlimit="10" fill="none" d="
M 973.1 4281.95
L 970.8 4279.6"/>

<path id="Tween_5_0_Layer0_2_1_STROKES" stroke="#FFFFFC" stroke-width="2" stroke-linejoin="miter" stroke-linecap="butt" stroke-miterlimit="10" fill="none" d="
M 1023.8 4228.95
L 975.5 4277.25"/>

<path id="Tween_5_0_Layer0_3_1_STROKES" stroke="#C7CF43" stroke-width="2" stroke-linejoin="miter" stroke-linecap="butt" stroke-miterlimit="10" fill="none" d="
M 1013.2 4249.1
L 1021.4 4257.3 1016.65 4262 1008.5 4253.8"/>

<path id="Tween_5_0_Layer0_4_1_STROKES" stroke="#C7CF43" stroke-width="2" stroke-linejoin="miter" stroke-linecap="butt" stroke-miterlimit="10" fill="none" d="
M 999.1 4244.4
L 981.35 4226.65 975.45 4225.5 966 4211.35 970.75 4206.65 984.85 4216.05 986.05 4221.95 1003.8 4239.7"/>

<path id="Tween_5_0_Layer0_5_1_STROKES" stroke="#C7CF43" stroke-width="2" stroke-linejoin="miter" stroke-linecap="butt" stroke-miterlimit="10" fill="none" d="
M 1013.15 4265.55
L 1024.9 4253.75 1030.8 4254.95 1030.8 4262 1049.65 4280.85
Q 1051.1 4282.3 1051.1 4284.4 1051.1 4286.45 1049.65 4287.9
L 1047.3 4290.25
Q 1045.85 4291.7 1043.8 4291.7 1041.7 4291.7 1040.25 4290.25
L 1021.4 4271.4 1014.3 4271.4 1013.15 4265.55 Z"/>

<path id="Tween_5_0_Layer0_6_1_STROKES" stroke="#FFFFFC" stroke-width="2" stroke-linejoin="miter" stroke-linecap="butt" stroke-miterlimit="10" fill="none" d="
M 1024.9 4265.55
L 1044.95 4285.55"/>
</defs>

<g transform="matrix( 1, 0, 0, 1, 65,65) ">
<g transform="matrix( 1, 0, 0, 1, 0,0) ">
<g transform="matrix( 1, 0, 0, 1, -1008.15,-4246.4) ">
<use xlink:href="#Tween_5_0_Layer0_0_1_STROKES"/>
</g>

<g transform="matrix( 1, 0, 0, 1, -1008.15,-4246.4) ">
<use xlink:href="#Tween_5_0_Layer0_1_1_STROKES"/>
</g>

<g transform="matrix( 1, 0, 0, 1, -1008.15,-4246.4) ">
<use xlink:href="#Tween_5_0_Layer0_2_1_STROKES"/>
</g>

<g transform="matrix( 1, 0, 0, 1, -1008.15,-4246.4) ">
<use xlink:href="#Tween_5_0_Layer0_3_1_STROKES"/>
</g>

<g transform="matrix( 1, 0, 0, 1, -1008.15,-4246.4) ">
<use xlink:href="#Tween_5_0_Layer0_4_1_STROKES"/>
</g>

<g transform="matrix( 1, 0, 0, 1, -1008.15,-4246.4) ">
<use xlink:href="#Tween_5_0_Layer0_5_1_STROKES"/>
</g>

<g transform="matrix( 1, 0, 0, 1, -1008.15,-4246.4) ">
<use xlink:href="#Tween_5_0_Layer0_6_1_STROKES"/>
</g>
</g>
</g>
</svg>
