
<svg xmlns="http://www.w3.org/2000/svg" version="1.1" xmlns:xlink="http://www.w3.org/1999/xlink" preserveAspectRatio="none" x="0px" y="0px" width="150px" height="150px" viewBox="0 0 150 150">
<defs>
<path id="Tween_3_0_Layer0_0_MEMBER_0_MEMBER_0_1_STROKES" stroke="#C7CF43" stroke-width="2" stroke-linejoin="miter" stroke-linecap="butt" stroke-miterlimit="10" fill="none" d="
M 990.45 4465.85
L 990.45 4443.05"/>

<path id="Tween_3_0_Layer0_0_MEMBER_1_MEMBER_0_1_STROKES" stroke="#C7CF43" stroke-width="2" stroke-linejoin="miter" stroke-linecap="butt" stroke-miterlimit="10" fill="none" d="
M 1028.4 4443.05
L 1028.4 4465.85"/>

<path id="Tween_3_0_Layer0_0_MEMBER_2_1_STROKES" stroke="#C7CF43" stroke-width="2" stroke-linejoin="miter" stroke-linecap="butt" stroke-miterlimit="10" fill="none" d="
M 1043.6 4471.55
L 1043.6 4463.95
Q 1043.6 4461.4 1042.35 4459.75 1041.5 4458.65 1038.8 4456.75
L 1030.3 4450.65"/>

<path id="Tween_3_0_Layer0_0_MEMBER_3_1_STROKES" stroke="#FFFFFC" stroke-width="2" stroke-linejoin="miter" stroke-linecap="butt" stroke-miterlimit="10" fill="none" d="
M 1036 4462.05
L 1013.2 4475.35 1013.2 4479.15"/>

<path id="Tween_3_0_Layer0_0_MEMBER_4_1_STROKES" stroke="#FFFFFC" stroke-width="2" stroke-linejoin="miter" stroke-linecap="butt" stroke-miterlimit="10" fill="none" d="
M 982.85 4462.05
L 1005.6 4475.35 1005.6 4479.15"/>

<path id="Tween_3_0_Layer0_0_MEMBER_5_1_STROKES" stroke="#C7CF43" stroke-width="2" stroke-linejoin="miter" stroke-linecap="butt" stroke-miterlimit="10" fill="none" d="
M 975.25 4469.65
L 975.25 4463.95
Q 975.25 4461.4 976.55 4459.75 977.4 4458.65 980.05 4456.75
L 988.55 4450.65"/>

<path id="Tween_3_0_Layer0_0_MEMBER_6_1_STROKES" stroke="#C7CF43" stroke-width="2" stroke-linejoin="miter" stroke-linecap="butt" stroke-miterlimit="10" fill="none" d="
M 1045.45 4395.65
L 1045.45 4405.1 1039.8 4405.1 1039.8 4407.3
Q 1039.8 4410.3 1034.4 4412.65 1036 4415.35 1036 4418.4
L 1036 4429.6
Q 1036 4433.6 1033.5 4436.7
L 1024.2 4448.3
Q 1022.6 4450.3 1020.25 4451.45 1017.95 4452.55 1015.35 4452.55
L 1003.5 4452.55
Q 1000.9 4452.55 998.55 4451.45 996.2 4450.3 994.6 4448.3
L 985.35 4436.7
Q 982.85 4433.65 982.85 4429.6
L 982.85 4418.4
Q 982.85 4415.3 984.4 4412.65 979.05 4410.3 979.05 4407.3
L 979.05 4405.1 973.35 4405.1 973.35 4395.65 977.15 4395.65 977.15 4391.85
Q 977.15 4384.85 981.9 4378.95 986.5 4373.2 994.25 4370.05
L 994.25 4367.15 1001.8 4367.15 1001.8 4363.35 1017 4363.35 1017 4367.15 1024.6 4367.15 1024.6 4370.05
Q 1032.35 4373.2 1036.95 4378.95 1041.7 4384.9 1041.7 4391.85
L 1041.7 4395.65 1045.45 4395.65 Z"/>

<path id="Tween_3_0_Layer0_0_MEMBER_7_1_STROKES" stroke="#C7CF43" stroke-width="2" stroke-linejoin="miter" stroke-linecap="butt" stroke-miterlimit="10" fill="none" d="
M 979.05 4401.3
L 979.05 4407.3
Q 979.05 4411.2 987.55 4413.8 996.2 4416.5 1009.4 4416.5 1022.6 4416.5 1031.3 4413.8 1039.8 4411.2 1039.8 4407.3
L 1039.8 4401.3 979.05 4401.3 Z"/>

<path id="Tween_3_0_Layer0_0_MEMBER_8_1_STROKES" stroke="#FFFFFC" stroke-width="2" stroke-linejoin="miter" stroke-linecap="butt" stroke-miterlimit="10" fill="none" d="
M 986.65 4402.2
L 986.65 4404.2
Q 989.15 4405.9 992.65 4406.55 995.15 4407 999.2 4407
L 1019.65 4407
Q 1023.7 4407 1026.2 4406.55 1029.7 4405.9 1032.2 4404.2
L 1032.2 4402.2"/>
</defs>

<g transform="matrix( 1.000213623046875, 0, 0, 1, 75,75) ">
<g transform="matrix( 1, 0, 0, 1, -1009.4,-4421.25) ">
<use xlink:href="#Tween_3_0_Layer0_0_MEMBER_0_MEMBER_0_1_STROKES"/>
</g>

<g transform="matrix( 1, 0, 0, 1, -1009.4,-4421.25) ">
<use xlink:href="#Tween_3_0_Layer0_0_MEMBER_1_MEMBER_0_1_STROKES"/>
</g>

<g transform="matrix( 1, 0, 0, 1, -1009.4,-4421.25) ">
<use xlink:href="#Tween_3_0_Layer0_0_MEMBER_2_1_STROKES"/>
</g>

<g transform="matrix( 1, 0, 0, 1, -1009.4,-4421.25) ">
<use xlink:href="#Tween_3_0_Layer0_0_MEMBER_3_1_STROKES"/>
</g>

<g transform="matrix( 1, 0, 0, 1, -1009.4,-4421.25) ">
<use xlink:href="#Tween_3_0_Layer0_0_MEMBER_4_1_STROKES"/>
</g>

<g transform="matrix( 1, 0, 0, 1, -1009.4,-4421.25) ">
<use xlink:href="#Tween_3_0_Layer0_0_MEMBER_5_1_STROKES"/>
</g>

<g transform="matrix( 1, 0, 0, 1, -1009.4,-4421.25) ">
<use xlink:href="#Tween_3_0_Layer0_0_MEMBER_6_1_STROKES"/>
</g>

<g transform="matrix( 1, 0, 0, 1, -1009.4,-4421.25) ">
<use xlink:href="#Tween_3_0_Layer0_0_MEMBER_7_1_STROKES"/>
</g>

<g transform="matrix( 1, 0, 0, 1, -1009.4,-4421.25) ">
<use xlink:href="#Tween_3_0_Layer0_0_MEMBER_8_1_STROKES"/>
</g>
</g>
</svg>
